<?xml version="1.0" encoding="iso-8859-1"?>
<!-- Uploaded to: SVG Repo, www.svgrepo.com, Generator: SVG Repo Mixer Tools -->
<!DOCTYPE svg PUBLIC "-//W3C//DTD SVG 1.1//EN" "http://www.w3.org/Graphics/SVG/1.1/DTD/svg11.dtd">
<svg fill="#000000" version="1.1" id="Capa_1" xmlns="http://www.w3.org/2000/svg" xmlns:xlink="http://www.w3.org/1999/xlink" 
	 width="800px" height="800px" viewBox="0 0 99 99" xml:space="preserve">
<g>
	<g>
		<rect x="6.549" y="35.893" width="10.984" height="43.272"/>
		<rect x="31.549" y="35.893" width="10.984" height="43.272"/>
		<rect x="56.549" y="35.893" width="10.984" height="43.272"/>
		<rect x="81.549" y="35.893" width="10.984" height="43.272"/>
		<path d="M97,20.903h-1.059v-0.178c0-0.834-0.518-1.581-1.299-1.873L50.201,2.224c-0.453-0.169-0.949-0.169-1.402,0L4.356,18.853
			c-0.781,0.292-1.299,1.039-1.299,1.873v0.178H2c-1.104,0-2,0.896-2,2v6.603c0,1.104,0.896,2,2,2h95c1.104,0,2-0.896,2-2v-6.603
			C99,21.799,98.104,20.903,97,20.903z"/>
		<path d="M97,83.903H2c-1.104,0-2,0.896-2,2v9c0,1.104,0.896,2,2,2h95c1.104,0,2-0.896,2-2v-9C99,84.799,98.104,83.903,97,83.903z"
			/>
	</g>
</g>
</svg>